<svg xmlns="http://www.w3.org/2000/svg" viewBox="0 0 16 16" width="16" height="16">
  <!-- Eye body, faded to signal files are currently hidden -->
  <path fill="#424242" opacity="0.4" d="M8 3C4.5 3 1.5 6 1 8c.5 2 3.5 5 7 5s6.5-3 7-5c-.5-2-3.5-5-7-5zm0 8a3 3 0 1 1 0-6 3 3 0 0 1 0 6zm0-5a2 2 0 1 0 0 4 2 2 0 0 0 0-4z"/>
  <!-- Diagonal slash through the eye (stops before the U badge at top-right) -->
  <line x1="2" y1="13" x2="10" y2="3" stroke="#424242" stroke-width="1.5" stroke-linecap="round"/>
  <!-- U badge -->
  <circle fill="#007acc" cx="13" cy="3" r="3"/>
  <text x="13" y="5" font-size="4" text-anchor="middle" fill="#fff" font-family="monospace" font-weight="bold">U</text>
</svg>
